<svg width="48" height="48" viewBox="0 0 48 48" fill="none" xmlns="http://www.w3.org/2000/svg">
<path fill-rule="evenodd" clip-rule="evenodd" d="M32.6586 13C32.8797 12.3745 33 11.7013 33 11C33 7.68629 30.3137 5 27 5C23.6863 5 21 7.68629 21 11C21 11.7013 21.1203 12.3745 21.3414 13H16C14.3431 13 13 14.3432 13 16V21.3414C12.3744 21.1203 11.7013 21 11 21C7.68629 21 5 23.6863 5 27C5 30.3137 7.68629 33 11 33C11.7013 33 12.3744 32.8796 13 32.6585V39C13 40.6569 14.3431 42 16 42H21.8026C21.2922 41.1175 21 40.0929 21 39.0001C21 35.6864 23.6863 33.0001 27 33.0001C30.3137 33.0001 33 35.6864 33 39.0001C33 40.0929 32.7079 41.1175 32.1974 42H39C40.6569 42 42 40.6569 42 39V32.1974C41.1175 32.7079 40.0928 33.0001 39 33.0001C35.6863 33.0001 33 30.3139 33 27.0001C33 23.6864 35.6863 21.0002 39 21.0002C40.0928 21.0002 41.1175 21.2923 42 21.8029V16C42 14.3432 40.6569 13 39 13H32.6586Z" fill="white"/>
<path fill-rule="evenodd" clip-rule="evenodd" d="M27 6C24.2386 6 22 8.23858 22 11C22 11.5862 22.1005 12.1468 22.2843 12.6668C22.3925 12.9729 22.3453 13.3124 22.1579 13.5774C21.9705 13.8425 21.6661 14.0001 21.3414 14.0001H16C14.8954 14.0001 14 14.8955 14 16.0001V21.3414C14 21.666 13.8424 21.9704 13.5774 22.1579C13.3123 22.3453 12.9728 22.3924 12.6667 22.2843C12.1467 22.1005 11.5862 22 11 22C8.23858 22 6 24.2386 6 27C6 29.7614 8.23858 32 11 32C11.5862 32 12.1467 31.8995 12.6667 31.7157C12.9728 31.6076 13.3123 31.6547 13.5774 31.8421C13.8424 32.0296 14 32.334 14 32.6586V39.0001C14 40.1046 14.8954 41.0001 16 41.0001H20.2901C20.1014 40.3659 20 39.6944 20 39.0002C20 35.1342 23.134 32.0002 27 32.0002C30.866 32.0002 34 35.1342 34 39.0002C34 39.6944 33.8987 40.3659 33.7099 41.0001H39C40.1046 41.0001 41 40.1046 41 39.0001V33.71C40.3658 33.8988 39.6942 34.0002 39 34.0002C35.134 34.0002 32 30.8662 32 27.0002C32 23.1342 35.134 20.0002 39 20.0002C39.6942 20.0002 40.3658 20.1015 41 20.2903V16.0001C41 14.8955 40.1046 14.0001 39 14.0001H32.6586C32.3339 14.0001 32.0295 13.8425 31.8421 13.5774C31.6547 13.3124 31.6075 12.9729 31.7157 12.6668C31.8995 12.1468 32 11.5862 32 11C32 8.23858 29.7614 6 27 6ZM20 11C20 7.13401 23.134 4 27 4C30.866 4 34 7.13401 34 11C34 11.3392 33.9758 11.6731 33.929 12.0001H39C41.2091 12.0001 43 13.7909 43 16.0001V21.8029C43 22.1603 42.8092 22.4906 42.4996 22.6691C42.19 22.8477 41.8086 22.8475 41.4993 22.6685C40.7648 22.2437 39.9124 22.0002 39 22.0002C36.2385 22.0002 34 24.2388 34 27.0002C34 29.7616 36.2385 32.0002 39 32.0002C39.9124 32.0002 40.7648 31.7567 41.4993 31.3319C41.8086 31.1529 42.19 31.1527 42.4996 31.3312C42.8092 31.5098 43 31.8401 43 32.1975V39.0001C43 41.2092 41.2091 43.0001 39 43.0001H32.1974C31.84 43.0001 31.5097 42.8093 31.3312 42.4997C31.1526 42.1901 31.1528 41.8087 31.3318 41.4994C31.7566 40.765 32 39.9125 32 39.0002C32 36.2388 29.7614 34.0002 27 34.0002C24.2386 34.0002 22 36.2388 22 39.0002C22 39.9125 22.2435 40.765 22.6683 41.4994C22.8472 41.8087 22.8475 42.1901 22.6689 42.4997C22.4903 42.8093 22.1601 43.0001 21.8026 43.0001H16C13.7909 43.0001 12 41.2092 12 39.0001V33.929C11.6731 33.9758 11.3392 34 11 34C7.13401 34 4 30.866 4 27C4 23.134 7.13401 20 11 20C11.3392 20 11.6731 20.0242 12 20.071V16.0001C12 13.7909 13.7909 12.0001 16 12.0001H20.071C20.0242 11.6731 20 11.3392 20 11Z" fill="#474747"/>
</svg>
